<svg width="100" height="100" viewBox="0 11 38 38" fill="none" xmlns="http://www.w3.org/2000/svg">
<g clip-path="url(#clip0)">
<path d="M0.797754 35.4651C3.14511 43.2951 10.4064 49 19.0002 49C29.4935 49 38.0002 40.4932 38.0002 30C38.0002 19.5066 29.4935 11 19.0002 11C8.93089 11 0.691745 18.8331 0.0410156 28.7377C1.27057 30.8024 1.75036 32.0794 0.797933 35.4651H0.797754Z" style="fill: #2F80ED;" />
<path d="M18.0214 25.2412C18.0214 25.2731 18.0214 25.3051 18.0231 25.3351L13.3737 32.089C12.6205 32.0548 11.8648 32.1869 11.1482 32.4821C10.8323 32.6109 10.5362 32.7691 10.2585 32.9518L0.0492213 28.7489C0.0493012 28.7489 -0.187015 32.6354 0.797479 35.5318L8.01487 38.5099C8.37726 40.1293 9.48823 41.5499 11.1273 42.2332C13.809 43.3536 16.901 42.0766 18.0165 39.3938C18.3068 38.6925 18.4422 37.957 18.4226 37.2231L25.0751 32.469C25.1289 32.4706 25.1843 32.4723 25.2382 32.4723C29.2192 32.4723 32.4549 29.2268 32.4549 25.2412C32.4549 21.2553 29.2192 18.0127 25.2382 18.0127C21.2588 18.0127 18.0214 21.2553 18.0214 25.2412ZM16.9059 38.9274C16.0425 41.0002 13.6604 41.9837 11.5898 41.1209C10.6346 40.723 9.9134 39.994 9.49736 39.1247L11.8467 40.0984C13.3737 40.7344 15.1256 40.0103 15.7603 38.4838C16.3971 36.9556 15.6747 35.2008 14.1485 34.5647L11.72 33.5584C12.6571 33.2029 13.7224 33.1899 14.7177 33.6041C15.7212 34.0216 16.4998 34.8077 16.9124 35.8124C17.325 36.817 17.3234 37.926 16.9059 38.9274V38.9274ZM25.2382 30.0585C22.588 30.0585 20.4303 27.8976 20.4303 25.2412C20.4303 22.5869 22.588 20.4253 25.2382 20.4253C27.89 20.4253 30.0477 22.5869 30.0477 25.2412C30.0477 27.8976 27.89 30.0585 25.2382 30.0585ZM21.6355 25.2338C21.6355 23.2355 23.2534 21.6147 25.2463 21.6147C27.2409 21.6147 28.8588 23.2355 28.8588 25.2338C28.8588 27.2323 27.2409 28.8517 25.2463 28.8517C23.2534 28.8517 21.6355 27.2323 21.6355 25.2338V25.2338Z" fill="white"/>
</g>
<defs>
<clipPath id="clip0">
<rect width="38" height="38" fill="white" transform="translate(0 11)"/>
</clipPath>
</defs>
</svg>
